<mxfile host="app.diagrams.net" modified="2021-08-10T12:50:58.890Z" agent="5.0 (Windows NT 10.0; Win64; x64) AppleWebKit/537.36 (KHTML, like Gecko) Chrome/91.0.4472.164 Safari/537.36 OPR/77.0.4054.298" etag="6b8jdvNKWCWLA8tDYyZh" version="14.9.5" type="github">
  <diagram id="Lvu9z83KgJnIB0eRIFI8" name="Page-1">
    <mxGraphModel dx="1381" dy="1964" grid="1" gridSize="10" guides="1" tooltips="1" connect="1" arrows="1" fold="1" page="1" pageScale="1" pageWidth="827" pageHeight="1169" math="0" shadow="0">
      <root>
        <mxCell id="0" />
        <mxCell id="1" parent="0" />
        <mxCell id="bOeQCihCizFAPjqP1Wep-2" value="" style="verticalLabelPosition=bottom;verticalAlign=top;html=1;shadow=0;dashed=0;strokeWidth=1;shape=mxgraph.android.phone2;strokeColor=#c0c0c0;" vertex="1" parent="1">
          <mxGeometry x="229" y="-340" width="369.23" height="720" as="geometry" />
        </mxCell>
      </root>
    </mxGraphModel>
  </diagram>
</mxfile>
